<svg width="27" height="27" viewBox="0 0 27 27" fill="white" xmlns="http://www.w3.org/2000/svg">
<path d="M19.6412 7.36157C19.177 6.89718 18.9052 6.27466 18.8801 5.6185C18.8551 4.96233 19.0787 4.32091 19.5062 3.82249C19.5415 3.78104 19.5599 3.72775 19.5576 3.67332C19.5554 3.61888 19.5326 3.56732 19.4939 3.52896L17.0313 1.06354C16.9906 1.02286 16.9354 1 16.8778 1C16.8203 1 16.7651 1.02286 16.7243 1.06354L12.7991 4.98879C12.6543 5.13358 12.5452 5.31012 12.4805 5.50442C12.416 5.69916 12.307 5.8762 12.1622 6.0215C12.0174 6.1668 11.8407 6.27635 11.6462 6.34148C11.4518 6.40626 11.2751 6.51534 11.13 6.66012L1.06354 16.7243C1.02286 16.7651 1 16.8203 1 16.8778C1 16.9354 1.02286 16.9906 1.06354 17.0313L3.52617 19.4939C3.56453 19.5326 3.61609 19.5554 3.67053 19.5576C3.72496 19.5599 3.77825 19.5415 3.8197 19.5062C4.31801 19.0782 4.95958 18.8543 5.61597 18.8792C6.27235 18.904 6.89512 19.1759 7.35959 19.6404C7.82406 20.1049 8.09596 20.7276 8.12085 21.384C8.14574 22.0404 7.92179 22.682 7.49383 23.1803C7.45847 23.2218 7.44009 23.275 7.44236 23.3295C7.44464 23.3839 7.46741 23.4355 7.5061 23.4738L9.96873 25.9365C10.0094 25.9771 10.0646 26 10.1222 26C10.1797 26 10.2349 25.9771 10.2757 25.9365L20.3427 15.87C20.4874 15.7249 20.5965 15.5482 20.6613 15.3538C20.7258 15.1591 20.8348 14.982 20.9796 14.8367C21.1244 14.6914 21.3011 14.5819 21.4956 14.5167C21.6899 14.452 21.8664 14.3429 22.0112 14.1981L25.9365 10.2729C25.9771 10.2322 26 10.177 26 10.1194C26 10.0618 25.9771 10.0066 25.9365 9.96594L23.4738 7.50331C23.4355 7.46462 23.3839 7.44185 23.3295 7.43957C23.275 7.4373 23.2218 7.45568 23.1803 7.49104C22.6826 7.91926 22.0415 8.14382 21.3854 8.11982C20.7292 8.09582 20.1063 7.82502 19.6412 7.36157Z" stroke="black" stroke-width="2" stroke-miterlimit="10"/>
<path d="M12.9644 6.96437L12 6M15.5356 9.53563L14.8925 8.89311M18.1069 12.1075L17.4644 11.4644M21 15L20.0356 14.0356" stroke="white" stroke-width="2" stroke-miterlimit="10" stroke-linecap="round"/>
</svg>
